<?xml version="1.0" encoding="utf-8"?>
<!-- Generator: Adobe Illustrator 21.1.0, SVG Export Plug-In . SVG Version: 6.00 Build 0)  -->
<svg version="1.1" id="圖層_1" xmlns="http://www.w3.org/2000/svg" xmlns:xlink="http://www.w3.org/1999/xlink" x="0px" y="0px"
	 viewBox="0 0 66 56" style="enable-background:new 0 0 66 56;" xml:space="preserve">
<style type="text/css">
	.st0{opacity:0.45;enable-background:new    ;}
	.st1{fill:#D6D6D6;}
	.st2{clip-path:url(#SVGID_2_);}
	.st3{fill:url(#SVGID_3_);}
	.st4{fill:url(#SVGID_4_);}
	.st5{fill:url(#SVGID_5_);}
</style>
<g>
	<path id="漢堡_2_" class="st0" d="M1.8,48.2h63v7h-63C1.8,55.2,1.8,48.2,1.8,48.2z M1.8,25.2h63v6.9h-63
		C1.8,32.1,1.8,25.2,1.8,25.2z M1.8,2.2h63v7h-63C1.8,9.2,1.8,2.2,1.8,2.2z"/>
	<g>
		<g>
			<path id="SVGID_7_" class="st1" d="M1.2,47.5h63v7h-63C1.2,54.5,1.2,47.5,1.2,47.5z M1.2,1.5v7h63v-7H1.2z M1.2,31.5h63v-6.9h-63
				C1.2,24.6,1.2,31.5,1.2,31.5z"/>
		</g>
		<g>
			<defs>
				<path id="SVGID_1_" d="M1.2,47.5h63v7h-63C1.2,54.5,1.2,47.5,1.2,47.5z M1.2,1.5v7h63v-7H1.2z M1.2,31.5h63v-6.9h-63
					C1.2,24.6,1.2,31.5,1.2,31.5z"/>
			</defs>
			<clipPath id="SVGID_2_">
				<use xlink:href="#SVGID_1_"  style="overflow:visible;"/>
			</clipPath>
			<g class="st2">
				
					<linearGradient id="SVGID_3_" gradientUnits="userSpaceOnUse" x1="33.3" y1="56" x2="33.3" y2="2.1198" gradientTransform="matrix(1 0 0 -1 0 58)">
					<stop  offset="0" style="stop-color:#FFFFFF"/>
					<stop  offset="1" style="stop-color:#989898"/>
				</linearGradient>
				<rect x="1.8" y="48.2" class="st3" width="63" height="7"/>
				
					<linearGradient id="SVGID_4_" gradientUnits="userSpaceOnUse" x1="33.3" y1="56" x2="33.3" y2="2.1198" gradientTransform="matrix(1 0 0 -1 0 58)">
					<stop  offset="0" style="stop-color:#FFFFFF"/>
					<stop  offset="1" style="stop-color:#989898"/>
				</linearGradient>
				<rect x="1.8" y="2.2" class="st4" width="63" height="7"/>
				
					<linearGradient id="SVGID_5_" gradientUnits="userSpaceOnUse" x1="33.3" y1="56" x2="33.3" y2="2.1198" gradientTransform="matrix(1 0 0 -1 0 58)">
					<stop  offset="0" style="stop-color:#FFFFFF"/>
					<stop  offset="1" style="stop-color:#989898"/>
				</linearGradient>
				<rect x="1.8" y="25.2" class="st5" width="63" height="6.9"/>
			</g>
		</g>
	</g>
</g>
</svg>
